<svg width="250" height="250" viewBox="0 0 250 250" fill="none" xmlns="http://www.w3.org/2000/svg">
<rect width="250" height="250" rx="47" fill="#020013"/>
<g opacity="0.8">
<path d="M56.4287 86.2036C56.4287 71.3369 67.754 59.2856 81.7227 59.2856H169.812C183.783 59.2856 195.108 71.3369 195.108 86.2036C195.108 101.07 183.783 113.121 169.812 113.121H81.7227C67.7516 113.121 56.4287 101.07 56.4287 86.2036Z" stroke="#6368E2" stroke-width="9.95"/>
<path d="M194.75 131.505H83.8583C68.986 131.505 56.9282 144.336 56.9282 160.164V161.23C56.9282 177.448 69.2824 190.595 84.5234 190.595H194.75H185.188" stroke="#6368E2" stroke-width="9.95"/>
<path d="M168.476 116.021L150.514 87.1411" stroke="#6368E2" stroke-width="9.95"/>
<path d="M30.7144 68.0269C30.7144 47.4197 47.4197 30.7144 68.0269 30.7144H181.973C202.58 30.7144 219.286 47.4197 219.286 68.0269V181.973C219.286 202.58 202.58 219.286 181.973 219.286H68.0269C47.4197 219.286 30.7144 202.58 30.7144 181.973V68.0269Z" stroke="#6368E2" stroke-width="7.4625"/>
</g>
</svg>
